<svg width="240" height="240" viewBox="0 0 240 240" fill="none" xmlns="http://www.w3.org/2000/svg">
<path d="M197.934 221.686C197.949 221.688 197.964 221.689 197.979 221.691C201.1 221.973 204.245 221.6 207.213 220.596C210.181 219.592 212.906 217.98 215.215 215.862C217.524 213.744 219.365 211.167 220.62 208.296C221.875 205.426 222.516 202.327 222.504 199.195C222.504 199.193 222.504 199.192 222.504 199.191L222.504 169.231C222.633 163.725 220.738 158.363 217.177 154.16C213.609 149.949 208.618 147.196 203.153 146.425L203.131 146.422C193.717 145.181 184.474 142.878 175.578 139.559C171.553 138.047 167.179 137.72 162.974 138.617C158.767 139.514 154.905 141.599 151.846 144.623L151.836 144.633L140.492 155.978C117.133 142.319 97.6859 122.872 84.0276 99.5131L95.372 88.1688L95.3818 88.1588C98.4066 85.1001 100.491 81.2383 101.388 77.0312C102.285 72.8261 101.958 68.452 100.446 64.427C97.1269 55.5309 94.8243 46.2878 93.5827 36.8741L93.5796 36.8511C92.8155 31.4449 90.1116 26.5009 85.9719 22.9408C81.8355 19.3835 76.5475 17.4503 71.0923 17.501L41.1042 17.501L41.1019 17.501C37.9782 17.5039 34.8894 18.1572 32.032 19.4193C29.1747 20.6815 26.6114 22.5247 24.5055 24.8317C22.3995 27.1387 20.797 29.859 19.8 32.8192C18.803 35.7795 18.4332 38.915 18.7144 42.026C18.7155 42.039 18.7168 42.052 18.7182 42.065C22.0417 73.3618 32.6899 103.436 49.8001 129.851C65.3476 154.315 86.0894 175.057 110.553 190.605C136.849 207.655 166.778 218.301 197.934 221.686Z" fill="#D1D5DB" stroke="#D1D5DB" stroke-width="5" stroke-linecap="round" stroke-linejoin="round"/>
</svg>
